<?xml version="1.0"?>
<svg version="1.1" xmlns="http://www.w3.org/2000/svg" width="133" height="65" style="border: dashed 2px #aaa"><path fill="#ad0a28" d="M32.16,42.4q-1.5,0-2.79-0.24q0.42,1.32,1.77,5.97q0.42,1.35,1.32,2.73q1.23,1.77,2.28,1.77q1.26,0,2.1-2.55q0.15-0.6,0.315-0.6t0.24,0.345t0.075,0.465q0,0.75-0.84,1.92q-1.11,1.65-2.43,1.65t-2.43-1.32t-2.175-4.815t-1.065-4.455q0-0.15,0.03-0.24q-3.6,4.77-5.16,6.3q-3.48,3.39-7.11,3.39q-2.55,0-2.55-1.92q0-0.96,0.6-2.115t1.47-2.025t1.53-0.87q0.12,0,0.12,0.06q0,0.15-0.75,0.75t-1.44,1.695t-0.69,1.995q0,1.59,2.13,1.59q3.99,0,10.98-9.36q0.39-0.51,0.66-0.72l-0.48-0.18q-0.39,0.15-0.63,0.15q-0.63,0-0.63-0.51q0-0.69,0.93-0.9q0.12-0.03,0.21-0.03q0.54,0,1.26,0.54q2.64-2.94,2.7-3q2.19-2.25,2.955-2.25t0.765,0.66q0,0.3-0.135,0.57t-0.315,0.27q-0.18,0.06-0.18-0.18q0-0.12,0.18-0.36q0.03-0.42-0.27-0.42q-0.96,0-4.65,5.1q0.9,0.06,1.5,0.06q6.96,0,8.7-3.6q0.36-0.78,0.36-1.44q0-1.32-1.2-2.28q-1.92-1.56-6.24-1.56t-8.82,2.19q-5.46,2.67-5.46,6.27q0,1.17,1.47,1.17t3.12-1.08t2.22-2.13q0.21-0.39,0.405-0.39t0.105,0.24q-0.57,1.68-2.535,2.865t-4.095,1.185t-2.13-1.35l0-0.21q0.45-3.93,4.815-6.675t10.515-2.745q5.73,0,8.13,1.98q1.44,1.2,1.44,2.82q0,0.69-0.33,1.5q-0.93,2.19-3.81,3.255t-6.06,1.065z M48.8451,41.53l0.42-0.09q0.33,0,0.63,0.27t0.3,0.42t-1.86,2.895t-1.86,3.825q0,0.09,0.03,0.18q0.15,0.69,0.66,0.69q1.56,0,5.7-5.16q0.09-0.12,0.21-0.12t0.12,0.225t-0.27,0.585q-3.84,5.13-5.85,5.13q-0.27,0-0.51-0.09q-1.32-0.51-1.32-1.98q0-0.51,0.12-1.02l-1.86,1.8q-1.77,1.56-2.565,1.56t-1.515-0.51q-0.81-0.6-0.81-1.59q0-2.19,3.06-5.235t5.61-3.045q0.99,0,1.32,0.69q0.09,0.24,0.15,0.405t0.09,0.165z M39.8751,48.91q0,1.08,0.75,1.08q1.74,0,4.74-3.81l3.18-4.38q-0.24-0.42-0.78-0.42q-1.83,0-4.86,2.835t-3.03,4.695z M66.9102,50.14q-2.04,0-2.04-1.89q0-1.08,0.96-2.955t2.01-3.165q-1.86,0.9-4.29,3.255t-3.39,4.935q-0.15,0.24-0.51,0.24q-0.72,0-0.72-0.81q0.3-1.65,1.35-3.78q0.33-0.69,1.95-4.02q-2.34,1.53-3.975,3.285t-3.03,3.525t-1.575,1.77q-0.39,0-0.675-0.36t-0.285-0.72q0-0.54,1.56-3.96l-1.8,1.89q-0.66,0.66-0.825,0.66t-0.165-0.195t0.24-0.435q1.11-1.11,1.98-2.22t2.88-3.96q0.33-0.45,0.93-0.45t0.6,0.57q0,0.21-1.59,2.925t-1.77,3.405q1.23-1.35,3.69-3.63q3.69-3.42,4.86-3.42q0.36,0,0.66,0.21t0.3,0.465t-1.17,2.265q-1.14,2.07-1.26,2.46q3.33-2.79,3.33-2.82q2.82-2.19,4.05-2.19q0.36,0,0.675,0.225t0.315,0.525q0,0.06-1.95,2.535t-2.19,4.065q-0.06,0.54,0.21,0.81t0.975,0.27t2.07-0.975t2.775-2.625q0.54-0.6,0.735-0.6t0.195,0.15q0,0.21-0.27,0.48q-1.47,1.77-3.165,3.015t-2.655,1.245z M71.1453,53.98q1.44,1.8,2.49,1.8q1.71,0,3.69-2.73q1.44-2.01,2.82-5.07l1.14-2.76l-4.41,3.45q-2.04,1.59-3.27,1.59q-0.66,0-1.05-0.45t-0.39-1.02q0-1.29,2.22-4.245t3.24-2.955t1.02,0.69q0,0.27-2.655,3.105t-2.655,3.825q0,0.39,0.51,0.39q0.96,0,3.855-2.25t4.365-3.72q0.33-0.39,0.93-1.17q0.57-0.66,1.26-0.66t0.69,0.66q0,0.12-1.35,2.13t-1.41,2.13q-0.93,1.8-2.85,5.25q-2.91,4.68-5.82,4.68q-0.96,0-1.68-0.825t-0.69-1.845z M95.2104,41.53l0.42-0.09q0.33,0,0.63,0.27t0.3,0.42t-1.86,2.895t-1.86,3.825q0,0.09,0.03,0.18q0.15,0.69,0.66,0.69q1.56,0,5.7-5.16q0.09-0.12,0.21-0.12t0.12,0.225t-0.27,0.585q-3.84,5.13-5.85,5.13q-0.27,0-0.51-0.09q-1.32-0.51-1.32-1.98q0-0.51,0.12-1.02l-1.86,1.8q-1.77,1.56-2.565,1.56t-1.515-0.51q-0.81-0.6-0.81-1.59q0-2.19,3.06-5.235t5.61-3.045q0.99,0,1.32,0.69q0.09,0.24,0.15,0.405t0.09,0.165z M86.2404,48.91q0,1.08,0.75,1.08q1.74,0,4.74-3.81l3.18-4.38q-0.24-0.42-0.78-0.42q-1.83,0-4.86,2.835t-3.03,4.695z"/><path fill="#" d=""/></svg>
